#N canvas 579 56 747 684 10;
#N canvas 791 228 546 496 gemwin 0;
#X obj -781 149 gemwin;
#X msg -777 59 create \, 1;
#X msg -741 97 0 \, destroy;
#X obj -775 33 loadbang;
#X obj -784 226 rectangle 4 0.01;
#X obj -783 201 gemhead;
#X obj -678 227 rectangle 4 0.01;
#X obj -677 181 gemhead;
#X obj -678 202 translateXYZ 0 1 0;
#X obj -560 226 rectangle 4 0.01;
#X obj -559 180 gemhead;
#X obj -560 201 translateXYZ 0 2 0;
#X obj -436 223 rectangle 4 0.01;
#X obj -435 177 gemhead;
#X obj -436 198 translateXYZ 0 3 0;
#X obj -674 348 gemhead;
#X obj -556 347 gemhead;
#X obj -432 344 gemhead;
#X obj -781 393 rectangle 0.01 4;
#X obj -776 370 gemhead;
#X obj -675 369 translateXYZ 1 0 0;
#X obj -675 394 rectangle 0.01 4;
#X obj -558 393 rectangle 0.01 4;
#X obj -557 368 translateXYZ 2 0 0;
#X obj -433 390 rectangle 0.01 4;
#X obj -429 365 translateXYZ 3 0 0;
#X text -783 170 horisontal;
#X obj -678 294 rectangle 4 0.01;
#X obj -677 248 gemhead;
#X obj -560 293 rectangle 4 0.01;
#X obj -559 247 gemhead;
#X obj -436 290 rectangle 4 0.01;
#X obj -435 244 gemhead;
#X obj -678 269 translateXYZ 0 -1 0;
#X obj -560 268 translateXYZ 0 -2 0;
#X obj -436 265 translateXYZ 0 -3 0;
#X text -769 349 vertical;
#X obj -669 428 gemhead;
#X obj -551 427 gemhead;
#X obj -427 424 gemhead;
#X obj -670 474 rectangle 0.01 4;
#X obj -553 473 rectangle 0.01 4;
#X obj -428 470 rectangle 0.01 4;
#X obj -670 449 translateXYZ -1 0 0;
#X obj -552 448 translateXYZ -2 0 0;
#X obj -424 445 translateXYZ -3 0 0;
#X connect 1 0 0 0;
#X connect 2 0 0 0;
#X connect 3 0 1 0;
#X connect 5 0 4 0;
#X connect 7 0 8 0;
#X connect 8 0 6 0;
#X connect 10 0 11 0;
#X connect 11 0 9 0;
#X connect 13 0 14 0;
#X connect 14 0 12 0;
#X connect 15 0 20 0;
#X connect 16 0 23 0;
#X connect 17 0 25 0;
#X connect 19 0 18 0;
#X connect 20 0 21 0;
#X connect 23 0 22 0;
#X connect 25 0 24 0;
#X connect 28 0 33 0;
#X connect 30 0 34 0;
#X connect 32 0 35 0;
#X connect 33 0 27 0;
#X connect 34 0 29 0;
#X connect 35 0 31 0;
#X connect 37 0 43 0;
#X connect 38 0 44 0;
#X connect 39 0 45 0;
#X connect 43 0 40 0;
#X connect 44 0 41 0;
#X connect 45 0 42 0;
#X restore 624 25 pd gemwin;
#N canvas 913 171 450 366 pad-control 0;
#X obj 30 80 hid;
#X msg 30 36 open 10;
#X obj 26 12 loadbang;
#X obj 24 132 s abs;
#X obj 33 98 route abs key;
#X obj 69 130 s key;
#X obj 153 34 r abs;
#X obj 151 60 route abs_x abs_y abs_z abs_rz;
#X obj 148 102 s lx;
#X obj 199 105 s ly;
#X obj 254 103 s rx;
#X obj 302 106 s ry;
#X obj 86 35 del 100;
#X msg 85 61 1;
#X obj 16 233 tgl 25 0 empty empty empty 0 -6 0 8 -195568 -1 -1 0 1
;
#X obj 46 233 tgl 25 0 empty empty empty 0 -6 0 8 -195568 -1 -1 0 1
;
#X obj 76 233 tgl 25 0 empty empty empty 0 -6 0 8 -195568 -1 -1 0 1
;
#X obj 106 233 tgl 25 0 empty empty empty 0 -6 0 8 -195568 -1 -1 0
1;
#X obj 136 233 tgl 25 0 empty empty empty 0 -6 0 8 -195568 -1 -1 0
1;
#X obj 166 233 tgl 25 0 empty empty empty 0 -6 0 8 -195568 -1 -1 0
1;
#X obj 196 233 tgl 25 0 empty empty empty 0 -6 0 8 -195568 -1 -1 0
1;
#X obj 226 233 tgl 25 0 empty empty empty 0 -6 0 8 -195568 -1 -1 0
1;
#X obj 256 233 tgl 25 0 empty empty empty 0 -6 0 8 -195568 -1 -1 0
1;
#X obj 286 233 tgl 25 0 empty empty empty 0 -6 0 8 -195568 -1 -1 0
1;
#X obj 316 233 tgl 25 0 empty empty empty 0 -6 0 8 -195568 -1 -1 0
1;
#X obj 346 233 tgl 25 0 empty empty empty 0 -6 0 8 -195568 -1 -1 0
1;
#X obj 14 166 r key;
#X obj 16 191 route btn_0 btn_1 btn_2 btn_3 btn_4 btn_5 btn_6 btn_7
btn_8 btn_9 btn_10 btn_11 btn_12;
#X obj 18 278 s b1;
#X obj 49 308 s b2;
#X obj 77 280 s b3;
#X obj 108 309 s b4;
#X obj 134 272 s l1;
#X obj 226 309 s r2;
#X floatatom 153 126 5 0 0 0 - - -;
#X floatatom 198 141 5 0 0 0 - - -;
#X floatatom 254 137 5 0 0 0 - - -;
#X floatatom 300 143 5 0 0 0 - - -;
#X obj 147 81 - 128;
#X obj 195 84 - 128;
#X obj 244 81 - 128;
#X obj 301 87 - 128;
#X obj 315 274 s lstick;
#X obj 348 313 s rstick;
#X obj 196 270 s l2;
#X obj 168 304 s r1;
#X obj 273 271 s st;
#X connect 0 0 4 0;
#X connect 1 0 0 0;
#X connect 2 0 1 0;
#X connect 2 0 12 0;
#X connect 4 0 3 0;
#X connect 4 1 5 0;
#X connect 6 0 7 0;
#X connect 7 0 38 0;
#X connect 7 1 39 0;
#X connect 7 2 40 0;
#X connect 7 3 41 0;
#X connect 12 0 13 0;
#X connect 13 0 0 0;
#X connect 14 0 28 0;
#X connect 15 0 29 0;
#X connect 16 0 30 0;
#X connect 17 0 31 0;
#X connect 18 0 32 0;
#X connect 19 0 45 0;
#X connect 20 0 44 0;
#X connect 21 0 33 0;
#X connect 23 0 46 0;
#X connect 24 0 42 0;
#X connect 25 0 43 0;
#X connect 26 0 27 0;
#X connect 27 0 14 0;
#X connect 27 1 15 0;
#X connect 27 2 16 0;
#X connect 27 3 17 0;
#X connect 27 4 18 0;
#X connect 27 5 19 0;
#X connect 27 6 20 0;
#X connect 27 7 21 0;
#X connect 27 8 22 0;
#X connect 27 9 23 0;
#X connect 27 10 24 0;
#X connect 27 11 25 0;
#X connect 38 0 8 0;
#X connect 38 0 34 0;
#X connect 39 0 9 0;
#X connect 39 0 35 0;
#X connect 40 0 10 0;
#X connect 40 0 36 0;
#X connect 41 0 11 0;
#X connect 41 0 37 0;
#X restore 629 81 pd pad-control;
#X obj 21 111 s tick;
#X obj 26 15 loadbang;
#X obj 24 60 tgl 15 0 empty empty empty 17 7 0 10 -262144 -1 -1 1 1
;
#X msg 25 39 1;
#N canvas 876 310 450 359 marker1 0;
#X obj 19 26 gemhead;
#X obj 23 330 circle 0.2 20;
#X obj 22 304 colour 1 0 0;
#X obj 23 265 translateXYZ 0 0 0.1;
#X obj 62 45 r tick;
#X obj 88 82 r lx;
#X obj 61 176 f;
#X obj 48 244 - 4;
#X floatatom 96 223 5 0 0 0 - - -;
#X floatatom 143 182 5 0 0 0 - - -;
#X obj 92 173 +;
#X obj 114 63 bng 15 250 50 0 empty empty empty 17 7 0 10 -262144 -1
-1;
#X floatatom 101 197 5 0 0 0 - - -;
#X obj 49 197 % 800;
#X obj 49 222 / 100;
#X obj 144 86 + 1;
#X obj 88 121 * 2;
#X obj 142 42 r speed;
#X obj 248 32 r tick;
#X obj 247 163 f;
#X obj 234 231 - 4;
#X floatatom 282 210 5 0 0 0 - - -;
#X floatatom 329 169 5 0 0 0 - - -;
#X obj 278 160 +;
#X obj 300 50 bng 15 250 50 0 empty empty empty 17 7 0 10 -262144 -1
-1;
#X floatatom 287 184 5 0 0 0 - - -;
#X obj 235 184 % 800;
#X obj 235 209 / 100;
#X obj 330 73 + 1;
#X obj 272 90 * 2;
#X obj 331 48 r speed;
#X obj 274 69 r ly;
#X obj 274 115 * -1;
#X obj 88 149 / 40;
#X obj 274 137 / 40;
#X obj 189 119 sel 1;
#X obj 189 97 r lstick;
#X msg 187 142 400;
#X obj 112 296 s m1x;
#X obj 236 288 s m1y;
#X connect 0 0 3 0;
#X connect 2 0 1 0;
#X connect 3 0 2 0;
#X connect 4 0 6 0;
#X connect 4 0 11 0;
#X connect 5 0 16 0;
#X connect 6 0 10 0;
#X connect 6 0 12 0;
#X connect 6 0 13 0;
#X connect 7 0 3 1;
#X connect 7 0 8 0;
#X connect 7 0 38 0;
#X connect 10 0 6 1;
#X connect 13 0 14 0;
#X connect 14 0 7 0;
#X connect 15 0 16 1;
#X connect 16 0 33 0;
#X connect 17 0 15 0;
#X connect 18 0 19 0;
#X connect 18 0 24 0;
#X connect 19 0 23 0;
#X connect 19 0 25 0;
#X connect 19 0 26 0;
#X connect 20 0 21 0;
#X connect 20 0 3 2;
#X connect 20 0 39 0;
#X connect 23 0 19 1;
#X connect 26 0 27 0;
#X connect 27 0 20 0;
#X connect 28 0 29 1;
#X connect 29 0 32 0;
#X connect 30 0 28 0;
#X connect 31 0 29 0;
#X connect 32 0 34 0;
#X connect 33 0 10 1;
#X connect 33 0 9 0;
#X connect 34 0 23 1;
#X connect 34 0 22 0;
#X connect 35 0 37 0;
#X connect 36 0 35 0;
#X connect 37 0 19 0;
#X connect 37 0 6 0;
#X restore 630 109 pd marker1;
#X obj 24 78 metro 10;
#X obj 124 146 hradio 15 1 0 8 speed empty empty 0 -8 0 10 -262144
-1 -1 0;
#X text 131 125 speed;
#N canvas 876 55 450 685 marker2 0;
#X obj 19 26 gemhead;
#X obj 28 609 circle 0.2 20;
#X obj 23 265 translateXYZ 0 0 0.1;
#X obj 62 45 r tick;
#X obj 61 176 f;
#X obj 48 244 - 4;
#X floatatom 96 223 5 0 0 0 - - -;
#X floatatom 143 182 5 0 0 0 - - -;
#X obj 92 173 +;
#X obj 114 63 bng 15 250 50 0 empty empty empty 17 7 0 10 -262144 -1
-1;
#X floatatom 101 197 5 0 0 0 - - -;
#X obj 49 222 / 100;
#X obj 144 86 + 1;
#X obj 88 121 * 2;
#X obj 142 42 r speed;
#X obj 248 32 r tick;
#X obj 247 163 f;
#X obj 234 231 - 4;
#X floatatom 282 210 5 0 0 0 - - -;
#X floatatom 329 169 5 0 0 0 - - -;
#X obj 278 160 +;
#X obj 300 50 bng 15 250 50 0 empty empty empty 17 7 0 10 -262144 -1
-1;
#X floatatom 287 184 5 0 0 0 - - -;
#X obj 235 209 / 100;
#X obj 330 73 + 1;
#X obj 272 90 * 2;
#X obj 331 48 r speed;
#X obj 274 115 * -1;
#X obj 88 149 / 40;
#X obj 274 137 / 40;
#X obj 88 82 r rx;
#X obj 274 69 r ry;
#X obj 184 104 sel 1;
#X msg 182 127 400;
#X obj 184 82 r rstick;
#X obj 49 197 % 800;
#X obj 235 184 % 800;
#X obj 128 292 s m2x;
#X obj 27 536 colourRGB 0 0 1;
#X obj 64 342 r m2y;
#X obj 227 291 s m2y;
#X obj 63 394 / 4;
#X obj 61 367 - 4;
#X obj 65 415 + 1;
#X obj 63 442 moses 0;
#X msg 37 468 0;
#X msg 123 461 0;
#X obj 61 471 * -1;
#X obj 225 445 r m2y;
#X obj 224 497 / 4;
#X obj 222 470 - 4;
#X obj 226 518 + 1;
#X obj 221 543 abs;
#X obj 219 566 / 4;
#X obj 214 590 + 0.1;
#X obj 40 511 s am-depth;
#X obj 114 511 s fm-depth;
#X connect 0 0 2 0;
#X connect 2 0 38 0;
#X connect 3 0 4 0;
#X connect 3 0 9 0;
#X connect 4 0 8 0;
#X connect 4 0 35 0;
#X connect 5 0 2 1;
#X connect 5 0 37 0;
#X connect 8 0 4 1;
#X connect 11 0 5 0;
#X connect 11 0 6 0;
#X connect 12 0 13 1;
#X connect 13 0 28 0;
#X connect 14 0 12 0;
#X connect 15 0 16 0;
#X connect 15 0 21 0;
#X connect 16 0 20 0;
#X connect 16 0 22 0;
#X connect 16 0 36 0;
#X connect 17 0 18 0;
#X connect 17 0 2 2;
#X connect 17 0 40 0;
#X connect 20 0 16 1;
#X connect 23 0 17 0;
#X connect 24 0 25 1;
#X connect 25 0 27 0;
#X connect 26 0 24 0;
#X connect 27 0 29 0;
#X connect 28 0 8 1;
#X connect 28 0 7 0;
#X connect 29 0 20 1;
#X connect 29 0 19 0;
#X connect 30 0 13 0;
#X connect 31 0 25 0;
#X connect 32 0 33 0;
#X connect 33 0 16 0;
#X connect 33 0 4 0;
#X connect 34 0 32 0;
#X connect 35 0 11 0;
#X connect 35 0 10 0;
#X connect 36 0 23 0;
#X connect 38 0 1 0;
#X connect 39 0 42 0;
#X connect 41 0 43 0;
#X connect 42 0 41 0;
#X connect 43 0 44 0;
#X connect 44 0 45 0;
#X connect 44 0 47 0;
#X connect 44 1 38 3;
#X connect 44 1 46 0;
#X connect 44 1 56 0;
#X connect 45 0 55 0;
#X connect 45 0 56 0;
#X connect 46 0 38 2;
#X connect 46 0 55 0;
#X connect 47 0 38 2;
#X connect 47 0 55 0;
#X connect 48 0 50 0;
#X connect 49 0 51 0;
#X connect 50 0 49 0;
#X connect 51 0 52 0;
#X connect 52 0 53 0;
#X connect 53 0 54 0;
#X connect 54 0 1 1;
#X restore 631 134 pd marker2;
#N canvas 674 113 679 566 synth 1;
#X obj 56 38 r m1x;
#X text 64 15 pitch;
#X obj 170 512 *~ 0.2;
#X obj 170 540 dac~;
#X obj 170 488 *~;
#X msg 264 467 \$1 100;
#X obj 258 495 line~;
#X obj 264 444 r l1;
#X obj 81 359 osc~ 440;
#X obj 57 83 i;
#X obj 61 190 mtof;
#X obj 72 297 line~;
#X msg 70 275 \$1 10;
#X obj 58 128 tabread scale;
#X obj 54 60 + 4;
#X obj 77 162 +;
#X obj 184 81 + 4;
#X obj 184 100 i;
#X obj 181 127 * 12;
#X obj 184 58 r m1y;
#X obj 177 150 + 0;
#X obj 62 220 s pitch;
#X obj 68 254 r pitch;
#N canvas 913 336 450 300 ampmod 0;
#X obj -79 281 outlet~;
#X obj 59 132 r am-depth;
#X obj 58 207 line~;
#X msg 58 180 \$1 10;
#X obj -79 237 *~;
#X obj -87 28 r pitch;
#X obj -85 113 *;
#X floatatom -20 65 5 0 0 0 - - -;
#X obj -21 22 r m2x;
#X obj -20 85 bang;
#X obj -86 162 line~;
#X msg -86 135 \$1 10;
#X floatatom -30 137 5 0 0 0 - - -;
#X obj -81 199 osc~;
#X obj -80 253 +~ 0.5;
#X obj -20 43 maxlib/scale -4 4 0 0.2;
#X connect 1 0 3 0;
#X connect 2 0 4 1;
#X connect 3 0 2 0;
#X connect 4 0 14 0;
#X connect 5 0 6 0;
#X connect 6 0 11 0;
#X connect 6 0 12 0;
#X connect 7 0 6 1;
#X connect 7 0 9 0;
#X connect 8 0 15 0;
#X connect 9 0 6 0;
#X connect 10 0 13 0;
#X connect 11 0 10 0;
#X connect 13 0 4 0;
#X connect 14 0 0 0;
#X connect 15 0 7 0;
#X restore 170 369 pd ampmod;
#X obj 158 412 *~;
#N canvas 913 303 450 437 freqmod 0;
#X obj 68 242 outlet~;
#X obj 155 106 r fm-depth;
#X msg 155 132 \$1 10;
#X obj 155 160 line~;
#X obj 52 155 osc~ 5;
#X obj 68 192 *~;
#X obj 66 218 +~ 1;
#X floatatom 199 140 5 0 0 0 - - -;
#X obj 24 7 r m2x;
#X msg 38 104 \$1 10;
#X obj 38 132 line~;
#X obj 85 12 r pitch;
#X obj 24 30 + 4;
#X obj 25 54 / 8;
#X obj 35 78 *;
#X msg 84 52 bang;
#X obj 153 192 *~ 10;
#X connect 1 0 2 0;
#X connect 1 0 7 0;
#X connect 2 0 3 0;
#X connect 3 0 16 0;
#X connect 4 0 5 0;
#X connect 5 0 6 0;
#X connect 6 0 0 0;
#X connect 8 0 12 0;
#X connect 9 0 10 0;
#X connect 10 0 4 0;
#X connect 11 0 14 1;
#X connect 11 0 15 0;
#X connect 12 0 13 0;
#X connect 13 0 14 0;
#X connect 14 0 9 0;
#X connect 15 0 14 0;
#X connect 16 0 5 1;
#X restore 134 300 pd freqmod;
#X obj 83 327 *~;
#N canvas 795 440 450 300 fb 0;
#X obj 61 43 inlet~;
#X obj 118 24 r st;
#X msg 119 57 \$1 10;
#X obj 117 88 line~;
#X obj 69 125 *~;
#X obj 69 164 delwrite~ d1 250;
#X obj 70 192 delread~ d1 250;
#X obj 67 236 dac~;
#X obj 103 131 *~ 0.8;
#X connect 0 0 4 0;
#X connect 1 0 2 0;
#X connect 2 0 3 0;
#X connect 3 0 4 1;
#X connect 4 0 5 0;
#X connect 6 0 7 0;
#X connect 6 0 7 1;
#X connect 6 0 8 0;
#X connect 8 0 5 0;
#X restore 75 533 pd fb;
#N canvas 806 440 450 300 dubstep 0;
#X obj 73 21 inlet~;
#X obj 120 154 phasor~ 500;
#X obj 98 177 *~;
#X obj 106 228 moog~ 3;
#X obj 324 223 +~ 3;
#X obj 104 273 dac~;
#X obj 234 219 *~ 400;
#X obj 235 194 phasor~;
#X msg 232 160 4;
#X msg 268 164 8;
#X obj 231 108 r r1;
#X obj 233 136 sel 1;
#X obj 281 132 sel 1;
#X obj 279 104 r r2;
#X obj 84 96 *~;
#X obj 138 10 r l2;
#X msg 139 32 \$1 10;
#X obj 143 52 line~;
#X obj 105 250 *~ 2;
#X connect 0 0 14 0;
#X connect 1 0 2 1;
#X connect 2 0 3 0;
#X connect 3 0 18 0;
#X connect 4 0 3 2;
#X connect 6 0 3 1;
#X connect 7 0 6 0;
#X connect 8 0 7 0;
#X connect 9 0 7 0;
#X connect 10 0 11 0;
#X connect 11 0 8 0;
#X connect 12 0 9 0;
#X connect 13 0 12 0;
#X connect 14 0 2 0;
#X connect 15 0 16 0;
#X connect 16 0 17 0;
#X connect 17 0 14 1;
#X connect 18 0 5 0;
#X connect 18 0 5 1;
#X restore 54 425 pd dubstep;
#X connect 0 0 14 0;
#X connect 2 0 3 0;
#X connect 2 0 3 1;
#X connect 2 0 27 0;
#X connect 4 0 2 0;
#X connect 5 0 6 0;
#X connect 6 0 4 1;
#X connect 7 0 5 0;
#X connect 8 0 24 0;
#X connect 8 0 28 0;
#X connect 9 0 13 0;
#X connect 10 0 21 0;
#X connect 11 0 26 0;
#X connect 12 0 11 0;
#X connect 13 0 15 0;
#X connect 14 0 9 0;
#X connect 15 0 10 0;
#X connect 16 0 17 0;
#X connect 17 0 18 0;
#X connect 18 0 20 0;
#X connect 19 0 16 0;
#X connect 20 0 15 1;
#X connect 22 0 12 0;
#X connect 23 0 24 1;
#X connect 24 0 4 0;
#X connect 25 0 26 1;
#X connect 26 0 8 0;
#X restore 634 162 pd synth;
#N canvas 0 0 450 300 (subpatch) 0;
#X array scale 8 float 3;
#A 0 0 2 4 5 7 8 9 11;
#X coords 0 12 8 0 200 140 1 0 0;
#X restore 416 416 graph;
#X msg 427 570 \; scale 0 0 2 4 5 7 8 9 11 12;
#N canvas 913 326 450 358 samp 1;
#X obj 23 27 r b1;
#X obj 41 289 soundfiler;
#X msg 41 272 read -resize \$1 s1;
#X obj 182 320 table s1;
#X obj 259 322 table s2;
#X obj 185 302 table s3;
#X obj 257 301 table s4;
#X obj 41 250 openpanel;
#X obj 41 219 bng 15 250 50 0 empty empty empty 17 7 0 10 -262144 -1
-1;
#X obj 110 226 openpanel;
#X obj 110 195 bng 15 250 50 0 empty empty empty 17 7 0 10 -262144
-1 -1;
#X msg 110 248 read -resize \$1 s2;
#X obj 234 223 openpanel;
#X obj 234 192 bng 15 250 50 0 empty empty empty 17 7 0 10 -262144
-1 -1;
#X msg 234 245 read -resize \$1 s3;
#X obj 297 232 openpanel;
#X obj 297 201 bng 15 250 50 0 empty empty empty 17 7 0 10 -262144
-1 -1;
#X msg 297 254 read -resize \$1 s4;
#X obj 22 58 sel 1;
#X obj 23 84 tabplay~ s1;
#X obj 19 110 dac~;
#X obj 100 58 sel 1;
#X obj 97 110 dac~;
#X obj 101 27 r b2;
#X obj 101 84 tabplay~ s2;
#X obj 172 53 sel 1;
#X obj 169 105 dac~;
#X obj 253 49 sel 1;
#X obj 250 101 dac~;
#X obj 254 17 r b4;
#X obj 254 75 tabplay~ s4;
#X obj 173 79 tabplay~ s3;
#X obj 173 22 r b3;
#X connect 0 0 18 0;
#X connect 2 0 1 0;
#X connect 7 0 2 0;
#X connect 8 0 7 0;
#X connect 9 0 11 0;
#X connect 10 0 9 0;
#X connect 11 0 1 0;
#X connect 12 0 14 0;
#X connect 13 0 12 0;
#X connect 14 0 1 0;
#X connect 15 0 17 0;
#X connect 16 0 15 0;
#X connect 17 0 1 0;
#X connect 18 0 19 0;
#X connect 19 0 20 0;
#X connect 19 0 20 1;
#X connect 21 0 24 0;
#X connect 23 0 21 0;
#X connect 24 0 22 0;
#X connect 24 0 22 1;
#X connect 25 0 31 0;
#X connect 27 0 30 0;
#X connect 29 0 27 0;
#X connect 30 0 28 0;
#X connect 30 0 28 1;
#X connect 31 0 26 0;
#X connect 31 0 26 1;
#X connect 32 0 25 0;
#X restore 636 198 pd samp;
#X connect 3 0 5 0;
#X connect 4 0 7 0;
#X connect 5 0 4 0;
#X connect 7 0 2 0;
